<svg width="620" height="477" viewBox="0 0 620 477" fill="none" xmlns="http://www.w3.org/2000/svg">
<path d="M933.826 39.3552C967.477 89.7118 967.951 157.168 940.856 210.505C912.781 265.755 856.299 297.6 794.702 295.752C735.25 293.936 675.016 261.937 649.341 206.63C625.327 154.892 632.705 80.7572 691.773 56.6731C741.657 36.3427 807.938 60.3785 829.093 110.795C850.249 161.211 825.921 221.476 783.152 252.452C729.178 291.52 658.243 273.251 603.646 245.945C537.418 212.969 476.089 158.196 398.792 154.995C337.848 152.471 277.847 182.355 239.131 228.887C219.587 252.067 206.127 279.75 199.971 309.428C193.538 341.865 198.99 380.244 220.987 406.054C245.452 434.771 284.903 432.815 312.031 408.691C341.834 382.141 348.714 340.384 353.266 302.748C361.938 230.875 361.636 150.67 321.774 87.3548C286.414 31.3394 218.452 -9.74493 151.27 10.6018C75.1086 33.6747 37.1803 112.465 23.9806 185.08C16.8277 224.475 14.7251 264.699 12.3547 304.609C9.9394 345.184 7.80173 385.809 3.47506 426.278C-4.80312 502.947 -21.5496 579.676 -61.493 646.572C-98.9557 709.329 -155.749 760.844 -227.925 778.702C-295.109 795.423 -366.461 784.052 -430.163 759.378C-509.807 728.621 -580.319 678.585 -651.273 632.099L-878.872 483.009L-988.001 411.513C-990.35 409.975 -988.239 406.134 -985.89 407.644L-761.018 554.939C-687.868 602.869 -615.591 652.571 -540.889 698.052C-474.376 738.525 -402.248 773.533 -323.669 780.726C-288.87 783.914 -253.382 781.666 -219.702 771.864C-183.147 760.931 -149.659 741.574 -121.929 715.351C-0.478034 602.084 -0.274824 425.428 9.97239 272.169C14.8765 199.156 23.2364 120.659 71.2355 61.7224C91.9629 36.226 119.487 15.2366 151.307 5.9513C180.243 -2.21164 211.067 -0.463876 238.873 10.9163C299.356 34.9811 338.727 91.8004 353.475 153.562C361.676 188.117 363.282 223.946 361.489 259.266C359.639 295.347 356.711 334.118 343.868 368.143C332.924 397.114 310.576 424.229 278.963 430.854C250.715 436.757 224.856 422.249 210.115 398.475C178.005 346.695 195.131 279.923 229.512 234.018C263.622 188.505 317.065 156.988 373.824 151.321C446.072 144.16 507.964 185.555 567.182 220.685C623.258 253.972 696.922 289.867 762.067 259.757C814.107 235.708 847.444 169.368 825.815 114.379C803.996 58.7985 724.033 34.9531 675.652 70.6606C617.654 113.437 638.265 203.676 683.812 246.746C729.359 289.815 801.493 303.414 859.844 280.269C920.559 256.144 956.026 192.382 955.86 128.63C956.013 97.7227 947.026 67.4704 930.029 41.6753C928.442 39.2942 932.254 37.0984 933.826 39.3552Z" fill="#FF4C0D"/>
</svg>
