<?xml version="1.0" standalone="no"?>
<!DOCTYPE svg PUBLIC "-//W3C//DTD SVG 20010904//EN"
 "http://www.w3.org/TR/2001/REC-SVG-20010904/DTD/svg10.dtd">
<svg version="1.0" xmlns="http://www.w3.org/2000/svg"
 width="960.000000pt" height="960.000000pt" viewBox="0 0 960.000000 960.000000"
 preserveAspectRatio="xMidYMid meet">
<metadata>
Created by potrace 1.14, written by Peter Selinger 2001-2017
</metadata>
<g transform="translate(0.000000,960.000000) scale(0.100000,-0.100000)"
fill="#000000" stroke="none">
<path d="M43 7901 c-13 -11 -23 -24 -23 -30 0 -6 -4 -11 -10 -11 -15 0 -14
-6091 1 -6123 6 -13 23 -31 39 -40 25 -15 91 -17 700 -17 489 0 677 3 693 12
32 16 57 48 58 72 0 12 2 1095 2 2408 l2 2387 28 29 29 30 151 1 c82 1 154 4
158 7 4 2 10 1 12 -3 3 -5 40 -6 82 -3 42 3 79 2 82 -3 2 -4 8 -5 13 -2 9 6
460 9 465 3 2 -2 110 -1 240 2 130 3 239 2 242 -3 2 -4 8 -5 13 -2 5 3 109 5
232 5 123 1 228 1 233 1 128 0 743 -12 775 -15 55 -5 127 -14 172 -21 18 -3
49 -8 68 -11 42 -6 68 -11 95 -17 11 -3 40 -10 65 -16 180 -42 372 -144 462
-247 103 -117 177 -274 222 -469 20 -88 27 -123 30 -155 2 -14 6 -47 9 -75 7
-52 14 -118 24 -208 3 -29 7 -851 9 -1827 2 -976 6 -1790 9 -1808 4 -23 16
-39 38 -52 31 -19 56 -20 705 -20 603 0 677 2 701 16 46 27 51 45 51 171 -1
147 -1 141 3 186 1 21 -1 41 -5 43 -5 3 -5 10 -2 16 9 14 9 182 0 196 -4 7 -3
12 1 12 5 0 8 15 6 33 -2 17 -4 39 -3 47 0 8 0 29 -1 45 -1 17 -1 35 0 40 6
60 5 87 -1 91 -5 3 -5 10 -2 16 9 14 9 182 0 196 -4 7 -3 12 1 12 5 0 8 15 6
33 -2 17 -4 39 -3 47 0 8 0 29 -1 45 -1 17 -1 35 0 40 6 60 5 87 -1 91 -5 3
-5 10 -2 16 4 6 6 54 5 107 -2 107 -2 101 2 154 1 21 -1 41 -5 43 -5 3 -5 10
-2 16 9 14 9 182 0 196 -4 7 -3 12 1 12 5 0 8 15 6 33 -2 17 -4 39 -3 47 0 8
0 29 -1 45 -1 17 -1 35 0 40 6 60 5 87 -1 91 -5 3 -5 10 -2 16 9 14 9 182 0
196 -4 7 -3 12 1 12 5 0 8 15 6 33 -2 17 -4 39 -3 47 0 8 0 29 -1 45 -1 17 -1
35 0 40 6 58 6 87 0 91 -4 2 -4 17 0 32 7 27 5 85 -4 109 -2 7 -1 14 3 17 8 5
6 120 -2 142 -3 7 -2 15 2 18 8 5 6 120 -2 142 -3 7 -1 16 4 19 5 3 6 18 4 33
-6 31 -6 42 -2 95 2 20 -1 37 -6 37 -4 0 -3 6 3 13 6 8 9 16 6 19 -3 2 -7 110
-10 239 -7 296 -12 398 -31 613 -13 157 -40 356 -65 482 -5 28 -12 64 -15 80
-23 130 -110 410 -150 487 -9 15 -12 27 -7 27 4 0 4 4 -2 8 -5 4 -27 41 -47
82 -39 79 -66 127 -83 146 -5 6 -17 22 -25 34 -51 77 -195 227 -256 267 -11 7
-41 28 -69 46 -162 109 -481 236 -685 272 -16 3 -58 12 -92 19 -35 8 -81 17
-103 20 -41 6 -79 12 -137 21 -18 3 -53 7 -78 10 -60 5 -142 14 -182 19 -18 2
-80 7 -138 11 -58 3 -132 9 -165 12 -33 3 -1063 7 -2290 9 -2185 4 -2230 4
-2252 -15z"/>
<path d="M8160 7913 c-26 -10 -60 -55 -61 -82 0 -14 -1 -1387 -1 -3051 -1
-2921 -1 -3027 17 -3054 10 -15 29 -32 43 -37 14 -5 310 -9 700 -9 628 1 679
2 698 18 12 10 26 27 33 39 15 30 16 6091 0 6126 -6 13 -23 31 -39 40 -25 15
-90 17 -702 16 -370 0 -680 -3 -688 -6z"/>
<path d="M2741 5504 c-14 -6 -32 -18 -39 -27 -17 -20 -33 -87 -22 -87 4 0 5
-15 1 -32 -6 -29 -6 -93 -1 -108 1 -3 1 -9 0 -15 -5 -24 -2 -333 3 -342 4 -6
4 -13 0 -16 -9 -10 -9 -98 0 -104 4 -2 4 -9 1 -15 -4 -6 -6 -661 -5 -1457 1
-795 1 -1454 1 -1463 0 -10 -1 -26 -1 -35 -2 -43 7 -68 34 -94 l28 -28 721 -1
721 0 28 30 c16 16 30 35 30 42 7 58 4 3679 -3 3697 -11 31 -45 61 -72 62 -12
1 -331 2 -710 3 -481 1 -697 -2 -715 -10z"/>
</g>
</svg>
